<svg width="382" height="173" viewBox="0 0 382 173" fill="none" xmlns="http://www.w3.org/2000/svg">
<g clip-path="url(#clip0)">
<path d="M147.3 40.1187V50.0009C144.373 51.0648 141.961 51.5884 140.065 51.5884C135.051 51.5884 130.901 49.9843 127.624 46.7678C126.078 45.2219 124.88 43.4183 124.032 41.3405C123.175 39.271 122.751 37.1682 122.751 35.0488C122.751 32.8297 123.192 30.6771 124.074 28.591C124.955 26.5048 126.136 24.7013 127.616 23.1886C130.893 19.8475 134.951 18.1769 139.774 18.1769C142.086 18.1769 144.597 18.7254 147.3 19.8142V29.7961C145.404 27.4523 142.976 26.2804 140.015 26.2804C137.728 26.2804 135.799 26.9869 134.227 28.3998C132.364 30.1369 131.433 32.3394 131.433 35.0073C131.433 37.5422 132.298 39.6367 134.036 41.274C135.608 42.7534 137.604 43.4931 140.015 43.4931C142.818 43.4931 145.246 42.3628 147.3 40.1187Z" fill="white"/>
<path d="M174.21 50.8653L172.231 45.4629H160.555L158.385 50.8653H149.562L161.911 18.7088H171.025L183.133 50.8653H174.21ZM162.876 39.1048H170.011L166.393 28.6907L162.876 39.1048Z" fill="white"/>
<path d="M195.191 50.8653H186.85V18.7088H195.191L210.576 38.3734V18.7088H218.917V50.8653H210.576L195.191 31.2007V50.8653Z" fill="white"/>
<path d="M234.018 50.8653H225.677V18.7088H234.018L249.403 38.3734V18.7088H257.744V50.8653H249.403L234.018 31.2007V50.8653Z" fill="white"/>
<path d="M286.109 50.8653L284.13 45.4629H272.454L270.284 50.8653H261.461L273.81 18.7088H282.924L295.032 50.8653H286.109ZM274.775 39.1048H281.91L278.292 28.6907L274.775 39.1048Z" fill="white"/>
<path d="M312.155 50.8653H298.749V18.7088H311.19C314.375 18.7088 316.72 19.5482 318.234 21.2188C319.548 22.665 320.213 24.6763 320.213 27.2445C320.213 28.6574 319.905 29.9789 319.298 31.2007C318.658 32.3892 317.785 33.2287 316.695 33.7107C318.5 33.9019 319.955 34.5502 321.086 35.6389C322.533 37.0186 323.256 38.9801 323.256 41.5234C323.256 44.158 322.466 46.2608 320.895 47.84C318.924 49.8513 316.013 50.8653 312.155 50.8653ZM307.09 25.1251V31.3919H308.637C310.117 31.3919 311.173 31.0511 311.822 30.3779C312.338 29.8626 312.595 29.1561 312.595 28.2585C312.595 27.3941 312.338 26.671 311.822 26.0892C311.182 25.4493 310.117 25.1251 308.637 25.1251H307.09ZM307.09 37.6087V44.3575H308.97C311.672 44.3575 313.394 43.9253 314.134 43.0526C314.583 42.5373 314.807 41.8475 314.807 40.9831C314.807 39.9858 314.533 39.2128 313.984 38.6726C313.277 37.9661 311.556 37.6087 308.82 37.6087H307.09Z" fill="white"/>
<path d="M328.554 18.7088H336.895V50.8653H328.554V18.7088Z" fill="white"/>
<path d="M342.2 47.9729L345.768 41.2241C348.079 43.41 350.541 44.4988 353.144 44.4988C354.624 44.4988 355.697 44.1331 356.379 43.3934C356.928 42.8449 357.202 42.1716 357.202 41.3654C357.202 40.5925 356.894 39.9525 356.287 39.4372C355.772 38.9884 354.391 38.4232 352.138 37.75L349.967 37.0768C347.813 36.4036 346.267 35.5309 345.335 34.4754C344.113 33.1622 343.506 31.2589 343.506 28.7904C343.506 25.5739 344.487 22.9891 346.449 21.0276C348.479 18.9997 351.223 17.994 354.699 17.994C358.009 17.994 361.318 18.8584 364.636 20.5955L361.31 27.1032C359.481 25.6571 357.643 24.934 355.813 24.934C354.657 24.934 353.743 25.2581 353.061 25.8981C352.512 26.4466 352.237 27.0201 352.237 27.6351C352.237 28.2169 352.379 28.699 352.67 29.0813C353.119 29.6299 354.05 30.1119 355.464 30.5275L358.017 31.3004C360.72 32.1399 362.666 33.1954 363.855 34.4837C365.235 35.9631 365.925 37.8747 365.925 40.2185C365.925 43.5929 364.911 46.2941 362.89 48.3137C360.703 50.4996 357.535 51.5884 353.385 51.5884C351.098 51.5884 348.994 51.231 347.065 50.5245C345.435 49.951 343.813 49.095 342.2 47.9729Z" fill="white"/>
<path d="M151.458 58.6031V68.2525H137.928V75.5415H150.734V85.191H137.928V92.7377H151.458V102.387H126.56V58.6031H151.458Z" fill="white"/>
<path d="M202.501 95.4389L210.052 103.185L199.607 104.764L195.931 100.559C192.472 102.437 188.638 103.384 184.43 103.384C176.722 103.384 170.634 100.974 166.169 96.1619C162.052 91.7819 159.99 86.5125 159.99 80.3372C159.99 77.2703 160.589 74.3281 161.795 71.5023C163 68.6764 164.655 66.2578 166.751 64.2465C171.308 59.8249 177.088 57.6141 184.098 57.6141C187.341 57.6141 190.493 58.1709 193.561 59.2847C196.63 60.3984 199.274 62.0357 201.511 64.18C206.019 68.5102 208.281 74.004 208.281 80.6614C208.281 83.7698 207.69 86.7037 206.509 89.463C205.545 91.7819 204.214 93.7683 202.501 95.4389ZM180.63 84.9334L191.341 83.5537L194.36 86.8367C195.715 84.9084 196.397 82.7641 196.397 80.4037C196.397 79.049 196.081 77.6277 195.441 76.14C194.809 74.6523 193.944 73.364 192.846 72.2669C191.707 71.1283 190.335 70.239 188.738 69.6073C187.141 68.9756 185.595 68.6515 184.106 68.6515C180.647 68.6515 177.753 69.8566 175.433 72.2669C173.071 74.7188 171.882 77.6527 171.882 81.0686C171.882 84.2601 172.979 86.9115 175.167 89.0142C177.487 91.25 180.447 92.3637 184.04 92.3637C185.179 92.3637 186.36 92.2141 187.591 91.9066L180.63 84.9334Z" fill="white"/>
<path d="M218.858 58.6031H230.226V84.5427C230.226 87.6096 230.966 89.8619 232.463 91.3081C233.952 92.7127 235.748 93.4109 237.852 93.4109C239.956 93.4109 241.702 92.7792 243.108 91.5076C243.898 90.8094 244.496 89.9201 244.912 88.848C245.328 87.7758 245.561 86.9197 245.602 86.2881C245.644 85.6564 245.669 84.7422 245.669 83.562V58.6031H257.037V83.7531C257.037 85.6814 256.97 87.2688 256.837 88.5155C256.704 89.7622 256.255 91.2749 255.49 93.0452C254.725 94.8155 253.594 96.4528 252.105 97.9405C248.513 101.573 243.698 103.393 237.652 103.393C231.257 103.393 226.418 101.639 223.133 98.14C220.289 95.0316 218.867 90.236 218.867 83.7614V58.6031H218.858Z" fill="white"/>
<path d="M269.511 58.6031H280.878V102.395H269.511V58.6031Z" fill="white"/>
<path d="M319.24 68.2525H309.909V102.395H298.541V68.2525H289.211V58.6031H319.231V68.2525H319.24Z" fill="white"/>
<path d="M339.672 102.395V81.3844L323.839 58.6031H337.435L345.709 70.5548L353.659 58.6031H367.455L351.098 81.3844V102.395H339.672Z" fill="white"/>
<path d="M126.518 115.677H136.448V153.926H126.518V115.677Z" fill="white"/>
<path d="M145.911 115.677H155.84V145.498H167.774V153.926H145.911V115.677Z" fill="white"/>
<path d="M174.318 115.677H184.248V145.498H196.181V153.926H174.318V115.677Z" fill="white"/>
<path d="M202.717 115.677H212.646V153.926H202.717V115.677Z" fill="white"/>
<path d="M232.039 153.926H222.11V115.677H232.039L250.342 139.073V115.677H260.272V153.926H250.342L232.039 130.529V153.926Z" fill="white"/>
<path d="M310.242 134.826C310.242 140.486 308.229 145.249 304.213 149.105C300.238 152.887 295.207 154.782 289.12 154.782C283.041 154.782 278.009 152.887 274.026 149.105C270.01 145.24 267.997 140.486 267.997 134.826C267.997 132.191 268.504 129.607 269.519 127.08C270.533 124.553 272.03 122.359 274.026 120.489C278.001 116.707 283.032 114.812 289.12 114.812C295.198 114.812 300.23 116.707 304.213 120.489C306.2 122.359 307.706 124.562 308.72 127.08C309.735 129.607 310.242 132.191 310.242 134.826ZM289.128 124.445C285.993 124.445 283.406 125.459 281.377 127.487C279.348 129.474 278.334 131.984 278.334 135.001C278.334 137.793 279.348 140.162 281.377 142.115C283.481 144.143 286.059 145.157 289.128 145.157C292.263 145.157 294.824 144.16 296.82 142.173C298.882 140.112 299.922 137.66 299.922 134.834C299.922 131.925 298.891 129.482 296.82 127.496C294.675 125.459 292.113 124.445 289.128 124.445Z" fill="white"/>
<path d="M317.992 115.677H327.922V153.926H317.992V115.677Z" fill="white"/>
<path d="M335.664 150.485L339.913 142.456C342.666 145.057 345.593 146.354 348.695 146.354C350.458 146.354 351.738 145.913 352.537 145.032C353.185 144.384 353.51 143.578 353.51 142.622C353.51 141.708 353.144 140.943 352.42 140.328C351.805 139.796 350.167 139.123 347.489 138.317L344.911 137.511C342.35 136.705 340.512 135.674 339.406 134.411C337.951 132.84 337.227 130.587 337.227 127.645C337.227 123.822 338.391 120.747 340.728 118.411C343.14 116.001 346.408 114.796 350.541 114.796C354.483 114.796 358.424 115.827 362.358 117.896L358.399 125.642C356.221 123.922 354.042 123.057 351.855 123.057C350.474 123.057 349.385 123.44 348.587 124.204C347.938 124.853 347.614 125.542 347.614 126.266C347.614 126.955 347.788 127.529 348.129 127.986C348.662 128.634 349.776 129.208 351.456 129.706L354.499 130.621C357.709 131.618 360.029 132.873 361.443 134.402C363.09 136.164 363.913 138.433 363.913 141.226C363.913 145.24 362.707 148.448 360.295 150.859C357.693 153.46 353.926 154.757 348.994 154.757C346.275 154.757 343.772 154.333 341.477 153.493C339.506 152.837 337.576 151.823 335.664 150.485Z" fill="white"/>
<path d="M96.5894 108.33C93.6123 104.955 94.5936 100.126 94.9429 98.8132L93.0052 83.3791L92.9886 67.5128L90.0282 52.7935L90.9013 29.2725C87.4336 30.5109 86.6103 21.6011 86.444 15.725L70.2778 16.3983L56.7063 17.2045L43.8831 17.8112L31.7502 18.2101C33.9622 19.9306 34.9102 22.4988 35.2595 23.8203C38.3281 25.175 40.2491 26.9453 40.9559 29.0813C41.6295 31.1093 40.9559 32.8048 40.6649 33.4281C39.4008 39.271 37.1555 43.2355 33.9373 45.2219C32.1494 46.3356 30.4695 46.5517 29.3718 46.5517C28.9477 46.5517 28.5901 46.5185 28.3324 46.4769C25.4634 47.1002 23.6339 48.081 23.1765 49.2529C22.8106 50.2004 23.4675 51.206 23.4842 51.206C26.0039 53.9072 27.1016 56.6832 26.6858 59.3345C26.3033 61.7448 24.7316 63.3322 23.7835 64.0803V70.6878H19.7254C20.0913 73.0399 20.0746 75.5416 18.2285 76.4226C17.9541 76.5472 17.663 76.6054 17.3553 76.6387C17.6131 80.3621 17.2306 84.6591 17.1558 85.3489C17.3054 86.3712 18.0289 91.0256 20.9894 92.4135L21.322 92.6296L31.4259 102.42C32.008 102.528 33.0142 102.844 33.8541 103.775C35.2761 105.346 35.7335 108.014 35.2429 111.721H45.3218L45.6128 112.959C45.6877 113.292 47.4008 120.888 42.7771 130.596L51.8248 139.78L58.4942 140.561L58.8934 141.201C59.9911 142.921 65.2301 151.465 62.3445 155.355C62.4692 157.433 63.1262 159.901 64.3403 160.708C64.6729 160.924 65.0139 161.015 65.4546 161.015C65.7457 161.015 66.0949 160.94 66.4608 160.832C67.3174 158.347 68.8142 156.726 70.9015 155.995C71.6666 155.721 72.5315 155.596 73.4379 155.596C76.1572 155.596 78.9597 156.801 80.8723 157.857L80.9305 156.801C79.7829 154.333 79.7081 152.238 80.6894 150.593C82.2943 147.892 86.0448 147.742 86.2111 147.742C86.76 147.775 87.2174 147.817 87.6581 147.817C87.8993 147.817 88.1321 147.817 88.3151 147.8C87.733 147.31 87.2756 146.761 86.9263 146.196C85.2049 143.362 86.8681 140.445 88.9221 138.691L90.2527 125.576L91.8078 125.85C92.4647 125.285 94.1445 121.927 95.2755 117.015L95.4585 116.25L96.1736 115.918C97.2879 115.411 97.2879 111.629 96.5894 108.33ZM79.0262 76.7052C78.6187 77.4698 77.4877 78.1679 77.4877 78.1679L78.2362 78.4921C77.6541 79.6141 76.6146 79.905 76.6146 79.905L77.1302 80.4369C76.4649 81.4925 75.0179 82.2239 75.0179 82.2239L75.4254 82.8888C74.7435 83.7947 72.8641 84.4014 72.8641 84.4014L73.4296 85.0497C72.257 86.4793 70.6521 86.6538 70.6521 86.6538L70.993 87.3353C70.3776 88.2246 67.9743 88.3742 67.9743 88.3742L68.2321 88.9062C66.5107 90.0448 65.4047 90.1695 65.4047 90.1695L65.6126 90.6599C64.49 90.984 62.3195 92.0894 60.989 92.8042C61.0222 92.854 61.0389 92.9205 61.0555 92.9787C62.0617 92.7044 63.4588 92.2806 64.1241 91.9398L64.2405 92.2806C64.2405 92.2806 64.8725 91.8234 66.2862 91.5658L66.4193 91.9897C66.4193 91.9897 67.7165 90.9009 68.465 91.0671L68.6147 91.5741C68.6147 91.5741 69.5211 90.8926 70.8101 91.0588L70.8267 91.6738C70.8267 91.6738 72.0741 91.0754 72.8558 91.2001L72.9722 91.732C72.9722 91.732 74.0616 91.4079 74.9181 91.6157L74.8849 92.1476C74.8849 92.1476 75.5668 91.7902 76.3984 92.0811L76.1905 92.613C76.1905 92.613 77.0969 92.4219 77.6873 92.613L77.6707 92.8707C77.6707 92.8707 79.4254 92.9538 80.8058 93.6021C80.1073 93.9096 79.3256 94.0758 78.7102 94.1506C78.0948 94.2337 77.6541 94.2503 77.6541 94.2503V94.508C77.0719 94.6825 76.1572 94.4747 76.1572 94.4747L76.3651 95.0067C75.5169 95.2643 74.8516 94.8903 74.8516 94.8903V95.4056C73.9951 95.5968 72.9223 95.2477 72.9223 95.2477L72.7893 95.7796C71.9909 95.896 70.7602 95.2643 70.7602 95.2643L70.7269 95.8627C69.4463 95.9957 68.5481 95.2809 68.5481 95.2809L68.3818 95.7962C67.6334 95.9292 66.3694 94.8072 66.3694 94.8072L66.2363 95.1978C64.8226 94.9069 64.2072 94.4332 64.2072 94.4332L64.0742 94.7739C63.4255 94.4166 62.0285 93.9594 61.0222 93.6187C60.9141 93.9594 60.6563 94.2171 60.3403 94.3584C60.3154 96.5276 60.1158 100.949 58.9349 102.661L58.1616 102.129C59.1179 100.75 59.3674 96.8019 59.4006 94.3999C59.0098 94.2587 58.727 93.9345 58.6356 93.5189C57.6293 93.8098 56.2988 94.2171 55.6501 94.5412L55.5337 94.2005C55.5337 94.2005 54.9017 94.6576 53.488 94.8986L53.355 94.4914C53.355 94.4914 52.0577 95.5802 51.3092 95.4139L51.1595 94.8986C51.1595 94.8986 50.2531 95.5801 48.9641 95.4305L48.9475 94.8155C48.9475 94.8155 47.7001 95.4139 46.9184 95.2893L46.7854 94.7573C46.7854 94.7573 45.696 95.0815 44.8561 94.8571L44.8727 94.3418C44.8727 94.3418 44.2074 94.6991 43.3592 94.4082L43.5837 93.8763C43.5837 93.8763 42.6773 94.0675 42.0869 93.8763L42.1035 93.6187C42.1035 93.6187 40.3322 93.5356 38.9684 92.8873C39.667 92.5798 40.4486 92.4135 41.064 92.3387C41.6794 92.2556 42.1201 92.239 42.1201 92.239V91.9813C42.7023 91.8068 43.617 92.0146 43.617 92.0146L43.4091 91.4827C44.2573 91.225 44.9226 91.599 44.9226 91.599V91.0671C45.7792 90.8926 46.8353 91.2333 46.8353 91.2333L46.985 90.718C47.7667 90.6017 48.9974 91.2333 48.9974 91.2333L49.0473 90.6183C50.328 90.5019 51.2094 91.2167 51.2094 91.2167L51.3758 90.7014C52.1408 90.5684 53.3882 91.6905 53.3882 91.6905L53.5379 91.2832C54.9516 91.5741 55.567 92.0645 55.567 92.0645L55.6834 91.7237C56.3154 92.0645 57.6626 92.5216 58.6688 92.8457C58.6688 92.8125 58.6855 92.7792 58.6855 92.7626C57.3715 92.0146 55.2427 90.851 54.12 90.4936L54.3612 90.0365C54.3612 90.0365 53.2552 89.862 51.567 88.6734L51.8581 88.1415C51.8581 88.1415 49.4548 87.9337 48.856 87.0029L49.2303 86.338C49.2303 86.338 47.6253 86.1136 46.486 84.6508L47.1014 84.0191C47.1014 84.0191 45.222 83.3542 44.5484 82.4483L44.9725 81.7834C44.9725 81.7834 43.5588 81.0021 42.9102 79.9299L43.4756 79.423C43.4756 79.423 42.4195 79.0988 41.8707 77.9602L42.6357 77.636C42.6357 77.636 41.5297 76.9046 41.1389 76.1234L41.4133 75.8823C41.4133 75.8823 39.7252 74.0123 38.9767 71.9843V71.9677C41.0224 72.7656 42.827 74.5027 42.827 74.5027L43.0848 74.245C43.8499 74.6523 44.5484 75.7826 44.5484 75.7826L44.8893 75.0346C46.012 75.6164 46.3031 76.6553 46.3031 76.6553L46.8353 76.14C47.8748 76.8215 48.6066 78.2511 48.6066 78.2511L49.2885 77.8438C50.1949 78.5253 50.802 80.4203 50.802 80.4203L51.4506 79.8385C52.8809 81.027 53.0556 82.6311 53.0556 82.6311L53.7375 82.2737C54.6273 82.8888 54.777 85.3074 54.777 85.3074L55.3092 85.0331C56.4485 86.7535 56.5732 87.8589 56.5732 87.8589L57.0472 87.6512C57.3715 88.7566 58.4443 90.8676 59.1595 92.1974C59.2426 92.1476 59.3258 92.0977 59.4173 92.0811C58.9266 90.344 58.0701 87.3603 57.3882 86.0637L57.9869 85.8559C57.9869 85.8559 57.2052 84.7671 56.7728 82.3319L57.4713 82.1241C57.4713 82.1241 55.6003 79.8884 55.883 78.6001L56.7728 78.3425C56.7728 78.3425 55.6003 76.7883 55.8664 74.5608L56.9225 74.5442C56.9225 74.5442 55.8996 72.3666 56.1075 71.0368L57.0306 70.8291C57.0306 70.8291 56.4984 68.959 56.856 67.5045L57.7624 67.5378C57.7624 67.5378 57.147 66.3659 57.646 64.928L58.569 65.3186C58.569 65.3186 58.2447 63.7478 58.569 62.7588L59.043 62.7505C59.043 62.7505 59.1927 59.7168 60.2904 57.3647C60.2904 57.3481 60.3071 57.3481 60.3071 57.3481C61.3632 59.7667 61.4131 62.7837 61.4131 62.7837H61.8705C62.1781 63.7894 61.8039 65.3436 61.8039 65.3436L62.727 64.9862C63.1844 66.4324 62.5357 67.5793 62.5357 67.5793H63.4422C63.7665 69.0587 63.1677 70.9039 63.1677 70.9039L64.0742 71.1283C64.2654 72.4747 63.1844 74.619 63.1844 74.619L64.2239 74.6855C64.4318 76.8963 63.2176 78.4173 63.2176 78.4173L64.0908 78.6916C64.332 79.9881 62.386 82.1657 62.386 82.1657L63.0846 82.4067C62.5856 84.8419 61.754 85.8975 61.754 85.8975L62.3528 86.1052C61.6542 87.3852 60.7145 90.2942 60.174 92.0312C60.3071 92.0645 60.4318 92.131 60.5316 92.1974C61.28 90.8843 62.4193 88.8231 62.7686 87.7176L63.2426 87.942C63.2426 87.942 63.4172 86.8366 64.5898 85.1494L65.122 85.4403C65.122 85.4403 65.2384 84.1272 65.6708 83.2046C65.887 82.7309 66.4692 82.5563 66.9265 82.814C66.9265 82.814 67.1511 81.2265 68.6147 80.0712L69.2467 80.6863C69.2467 80.6863 69.9119 78.7996 70.8184 78.1513L71.4837 78.5586C71.4837 78.5586 72.2654 77.1457 73.3381 76.514L73.8371 77.0625C73.8371 77.0625 74.1614 76.0236 75.3007 75.4751L75.625 76.2397C75.625 76.2397 76.3568 75.1177 77.1385 74.7271L77.3796 75.0013C77.3796 75.0013 79.2507 73.3141 81.2798 72.5827H81.2964C80.4981 74.6107 78.7601 76.4143 78.7601 76.4143L79.0262 76.7052Z" fill="white"/>
</g>
<defs>
<clipPath id="clip0">
<rect width="382" height="173" fill="white"/>
</clipPath>
</defs>
</svg>
